<mxfile host="app.diagrams.net" modified="2024-04-14T13:28:46.971Z" agent="Mozilla/5.0 (Macintosh; Intel Mac OS X 10_15_7) AppleWebKit/537.36 (KHTML, like Gecko) Chrome/123.0.0.0 Safari/537.36" etag="0qpH3Ek8Q1runwPFsRXE" version="24.2.5" type="google">
  <diagram name="Replication Single Machine" id="oGgIKcy1KZ6UAMiOBFBA">
    <mxGraphModel grid="1" page="1" gridSize="10" guides="1" tooltips="1" connect="1" arrows="1" fold="1" pageScale="1" pageWidth="827" pageHeight="1169" background="#000000" math="0" shadow="0">
      <root>
        <mxCell id="J8uCGS3BcCjM7RrEL_1T-0" />
        <mxCell id="J8uCGS3BcCjM7RrEL_1T-1" parent="J8uCGS3BcCjM7RrEL_1T-0" />
        <mxCell id="0Lq6ei8JvvkG0iNvDyIp-28" value="" style="rounded=1;whiteSpace=wrap;html=1;strokeColor=default;container=0;" vertex="1" parent="J8uCGS3BcCjM7RrEL_1T-1">
          <mxGeometry x="59" y="50" width="710" height="410" as="geometry" />
        </mxCell>
        <mxCell id="GXZVyJL7a8LmTCk5dLTQ-2" value="" style="edgeStyle=orthogonalEdgeStyle;rounded=0;orthogonalLoop=1;jettySize=auto;html=1;" edge="1" parent="J8uCGS3BcCjM7RrEL_1T-1">
          <mxGeometry relative="1" as="geometry">
            <mxPoint x="295" y="169.00150943396227" as="sourcePoint" />
          </mxGeometry>
        </mxCell>
        <mxCell id="0Lq6ei8JvvkG0iNvDyIp-15" value="" style="edgeStyle=orthogonalEdgeStyle;rounded=0;orthogonalLoop=1;jettySize=auto;html=1;" edge="1" parent="J8uCGS3BcCjM7RrEL_1T-1">
          <mxGeometry relative="1" as="geometry">
            <mxPoint x="20" y="425" as="sourcePoint" />
          </mxGeometry>
        </mxCell>
        <mxCell id="0Lq6ei8JvvkG0iNvDyIp-16" value="" style="edgeStyle=orthogonalEdgeStyle;rounded=0;orthogonalLoop=1;jettySize=auto;html=1;" edge="1" parent="J8uCGS3BcCjM7RrEL_1T-1">
          <mxGeometry relative="1" as="geometry">
            <mxPoint x="170" y="425" as="sourcePoint" />
          </mxGeometry>
        </mxCell>
        <mxCell id="0Lq6ei8JvvkG0iNvDyIp-17" value="" style="edgeStyle=orthogonalEdgeStyle;rounded=0;orthogonalLoop=1;jettySize=auto;html=1;" edge="1" parent="J8uCGS3BcCjM7RrEL_1T-1">
          <mxGeometry relative="1" as="geometry">
            <mxPoint x="320" y="425" as="sourcePoint" />
          </mxGeometry>
        </mxCell>
        <mxCell id="0Lq6ei8JvvkG0iNvDyIp-23" value="" style="edgeStyle=orthogonalEdgeStyle;rounded=0;orthogonalLoop=1;jettySize=auto;html=1;" edge="1" parent="J8uCGS3BcCjM7RrEL_1T-1">
          <mxGeometry relative="1" as="geometry">
            <mxPoint x="720" y="415.79999999999995" as="sourcePoint" />
          </mxGeometry>
        </mxCell>
        <mxCell id="0Lq6ei8JvvkG0iNvDyIp-24" value="" style="edgeStyle=orthogonalEdgeStyle;rounded=0;orthogonalLoop=1;jettySize=auto;html=1;" edge="1" parent="J8uCGS3BcCjM7RrEL_1T-1">
          <mxGeometry relative="1" as="geometry">
            <mxPoint x="830" y="415.79999999999995" as="sourcePoint" />
          </mxGeometry>
        </mxCell>
        <mxCell id="0Lq6ei8JvvkG0iNvDyIp-25" value="" style="edgeStyle=orthogonalEdgeStyle;rounded=0;orthogonalLoop=1;jettySize=auto;html=1;" edge="1" parent="J8uCGS3BcCjM7RrEL_1T-1">
          <mxGeometry relative="1" as="geometry">
            <mxPoint x="940" y="415.79999999999995" as="sourcePoint" />
          </mxGeometry>
        </mxCell>
        <mxCell id="0Lq6ei8JvvkG0iNvDyIp-26" value="" style="edgeStyle=orthogonalEdgeStyle;rounded=0;orthogonalLoop=1;jettySize=auto;html=1;" edge="1" parent="J8uCGS3BcCjM7RrEL_1T-1">
          <mxGeometry relative="1" as="geometry">
            <mxPoint x="1050" y="415.79999999999995" as="sourcePoint" />
          </mxGeometry>
        </mxCell>
        <mxCell id="GXZVyJL7a8LmTCk5dLTQ-3" value="" style="edgeStyle=orthogonalEdgeStyle;rounded=0;orthogonalLoop=1;jettySize=auto;html=1;" edge="1" parent="J8uCGS3BcCjM7RrEL_1T-1">
          <mxGeometry relative="1" as="geometry">
            <mxPoint x="475" y="169.00150943396227" as="sourcePoint" />
          </mxGeometry>
        </mxCell>
        <mxCell id="nOzmlmnSID6Bgxyw5HdH-5" value="&lt;font style=&quot;font-size: 20px;&quot;&gt;Streaming Replication&lt;/font&gt;" style="edgeStyle=orthogonalEdgeStyle;rounded=0;orthogonalLoop=1;jettySize=auto;html=1;" edge="1" parent="J8uCGS3BcCjM7RrEL_1T-1">
          <mxGeometry relative="1" as="geometry">
            <mxPoint x="279" y="160" as="sourcePoint" />
            <mxPoint x="549" y="160" as="targetPoint" />
          </mxGeometry>
        </mxCell>
        <mxCell id="nOzmlmnSID6Bgxyw5HdH-2" value="&lt;h1 style=&quot;margin-top: 0px;&quot;&gt;Primary&lt;/h1&gt;" style="text;html=1;whiteSpace=wrap;overflow=hidden;rounded=0;align=center;" vertex="1" parent="J8uCGS3BcCjM7RrEL_1T-1">
          <mxGeometry x="139" y="70" width="180" height="60" as="geometry" />
        </mxCell>
        <mxCell id="nOzmlmnSID6Bgxyw5HdH-3" value="&lt;h1 style=&quot;margin-top: 0px;&quot;&gt;Standby&lt;/h1&gt;" style="text;html=1;whiteSpace=wrap;overflow=hidden;rounded=0;align=center;" vertex="1" parent="J8uCGS3BcCjM7RrEL_1T-1">
          <mxGeometry x="509" y="70" width="180" height="60" as="geometry" />
        </mxCell>
        <mxCell id="xVIrmUXRm1avwGHS0gCq-0" value="" style="shape=cylinder3;whiteSpace=wrap;html=1;boundedLbl=1;backgroundOutline=1;size=15;" vertex="1" parent="J8uCGS3BcCjM7RrEL_1T-1">
          <mxGeometry x="179" y="110" width="100" height="100" as="geometry" />
        </mxCell>
        <mxCell id="xVIrmUXRm1avwGHS0gCq-1" value="" style="shape=cylinder3;whiteSpace=wrap;html=1;boundedLbl=1;backgroundOutline=1;size=15;" vertex="1" parent="J8uCGS3BcCjM7RrEL_1T-1">
          <mxGeometry x="549" y="110" width="100" height="100" as="geometry" />
        </mxCell>
        <mxCell id="xVIrmUXRm1avwGHS0gCq-12" style="edgeStyle=orthogonalEdgeStyle;rounded=0;orthogonalLoop=1;jettySize=auto;html=1;" edge="1" parent="J8uCGS3BcCjM7RrEL_1T-1" source="xVIrmUXRm1avwGHS0gCq-3" target="xVIrmUXRm1avwGHS0gCq-4">
          <mxGeometry relative="1" as="geometry" />
        </mxCell>
        <mxCell id="xVIrmUXRm1avwGHS0gCq-3" value="&lt;font style=&quot;font-size: 20px;&quot;&gt;ETCD&lt;/font&gt;" style="ellipse;whiteSpace=wrap;html=1;aspect=fixed;" vertex="1" parent="J8uCGS3BcCjM7RrEL_1T-1">
          <mxGeometry x="179" y="310" width="100" height="100" as="geometry" />
        </mxCell>
        <mxCell id="xVIrmUXRm1avwGHS0gCq-13" style="edgeStyle=orthogonalEdgeStyle;rounded=0;orthogonalLoop=1;jettySize=auto;html=1;entryX=1;entryY=0.5;entryDx=0;entryDy=0;" edge="1" parent="J8uCGS3BcCjM7RrEL_1T-1" source="xVIrmUXRm1avwGHS0gCq-4" target="xVIrmUXRm1avwGHS0gCq-3">
          <mxGeometry relative="1" as="geometry" />
        </mxCell>
        <mxCell id="xVIrmUXRm1avwGHS0gCq-4" value="&lt;font style=&quot;font-size: 20px;&quot;&gt;ETCD&lt;/font&gt;" style="ellipse;whiteSpace=wrap;html=1;aspect=fixed;" vertex="1" parent="J8uCGS3BcCjM7RrEL_1T-1">
          <mxGeometry x="549" y="310" width="100" height="100" as="geometry" />
        </mxCell>
        <mxCell id="xVIrmUXRm1avwGHS0gCq-10" style="edgeStyle=orthogonalEdgeStyle;rounded=0;orthogonalLoop=1;jettySize=auto;html=1;" edge="1" parent="J8uCGS3BcCjM7RrEL_1T-1" source="xVIrmUXRm1avwGHS0gCq-6" target="xVIrmUXRm1avwGHS0gCq-0">
          <mxGeometry relative="1" as="geometry">
            <Array as="points">
              <mxPoint x="109" y="160" />
            </Array>
          </mxGeometry>
        </mxCell>
        <mxCell id="xVIrmUXRm1avwGHS0gCq-11" style="edgeStyle=orthogonalEdgeStyle;rounded=0;orthogonalLoop=1;jettySize=auto;html=1;" edge="1" parent="J8uCGS3BcCjM7RrEL_1T-1" source="xVIrmUXRm1avwGHS0gCq-6" target="xVIrmUXRm1avwGHS0gCq-3">
          <mxGeometry relative="1" as="geometry">
            <Array as="points">
              <mxPoint x="109" y="360" />
            </Array>
          </mxGeometry>
        </mxCell>
        <mxCell id="xVIrmUXRm1avwGHS0gCq-6" value="&lt;font style=&quot;font-size: 20px;&quot;&gt;Patroni&lt;/font&gt;" style="rounded=1;whiteSpace=wrap;html=1;" vertex="1" parent="J8uCGS3BcCjM7RrEL_1T-1">
          <mxGeometry x="69" y="210" width="80" height="110" as="geometry" />
        </mxCell>
        <mxCell id="xVIrmUXRm1avwGHS0gCq-8" style="edgeStyle=orthogonalEdgeStyle;rounded=0;orthogonalLoop=1;jettySize=auto;html=1;" edge="1" parent="J8uCGS3BcCjM7RrEL_1T-1" source="xVIrmUXRm1avwGHS0gCq-7" target="xVIrmUXRm1avwGHS0gCq-1">
          <mxGeometry relative="1" as="geometry">
            <Array as="points">
              <mxPoint x="719" y="160" />
            </Array>
          </mxGeometry>
        </mxCell>
        <mxCell id="xVIrmUXRm1avwGHS0gCq-9" style="edgeStyle=orthogonalEdgeStyle;rounded=0;orthogonalLoop=1;jettySize=auto;html=1;entryX=1;entryY=0.5;entryDx=0;entryDy=0;" edge="1" parent="J8uCGS3BcCjM7RrEL_1T-1" source="xVIrmUXRm1avwGHS0gCq-7" target="xVIrmUXRm1avwGHS0gCq-4">
          <mxGeometry relative="1" as="geometry">
            <Array as="points">
              <mxPoint x="719" y="360" />
            </Array>
          </mxGeometry>
        </mxCell>
        <mxCell id="xVIrmUXRm1avwGHS0gCq-7" value="&lt;font style=&quot;font-size: 20px;&quot;&gt;Patroni&lt;/font&gt;" style="rounded=1;whiteSpace=wrap;html=1;" vertex="1" parent="J8uCGS3BcCjM7RrEL_1T-1">
          <mxGeometry x="679" y="210" width="80" height="110" as="geometry" />
        </mxCell>
      </root>
    </mxGraphModel>
  </diagram>
</mxfile>
